<?xml version="1.0" encoding="utf-8"?>
<!-- Generator: Adobe Illustrator 16.0.0, SVG Export Plug-In . SVG Version: 6.00 Build 0)  -->
<!DOCTYPE svg PUBLIC "-//W3C//DTD SVG 1.1//EN" "http://www.w3.org/Graphics/SVG/1.1/DTD/svg11.dtd">
<svg version="1.1" id="Calque_1" xmlns="http://www.w3.org/2000/svg" xmlns:xlink="http://www.w3.org/1999/xlink" x="0px" y="0px"
	 width="80px" height="80px" viewBox="0 0 80 80" enable-background="new 0 0 80 80" xml:space="preserve">
<g>
	<rect x="73.832" y="8.178" fill="#E5007E" width="3.668" height="63.772"/>
	<path fill="#E5007E" d="M54.942,45.717c0.021,14.469-11.691,26.213-26.16,26.233C14.314,71.97,2.571,60.257,2.55,45.789L2.5,8.225
		h52.394L54.942,45.717z"/>
	<path fill="#FFFFFF" d="M39.188,41.282h-5.225c-0.005,0-0.009-0.003-0.011,0l-5.206,7.606c-0.006,0.007-0.019,0.007-0.025,0
		l-5.226-7.606c-0.002-0.003-0.009,0-0.013,0h-5.223c-0.008,0-0.014-0.008-0.014,0L15.194,61.46c-0.001,0.01,0.008,0,0.017,0h4.944
		c0.007,0,0.015,0.008,0.017,0l2.071-13.678c0.001-0.014,0.019-0.021,0.028-0.009l6.045,8.563c0.09,0.124,0.242,0.203,0.424,0.203
		c0.226,0,0.354-0.118,0.465-0.255l5.966-8.502c0.01-0.01,0.028-0.005,0.031,0.008l0.468,2.877l1.659,10.792
		c0.001,0.008,0.009,0,0.017,0h4.945c0.011,0,0.019,0.01,0.017,0l-3.103-20.178C39.203,41.274,39.196,41.282,39.188,41.282"/>
	<path fill="#FFFFFF" d="M32.633,31.057c-0.003,0.004-0.003,0.007-0.003,0.013l0.864,5.622c0.001,0.008,0.007,0,0.015,0h4.944
		c0.011,0,0.019,0.009,0.017,0l-0.677-4.418l0.098-0.149l5.157-7.914v-7.887H38.51l-1.684,2.593h-4.412l-1.686-2.593h-0.005h-3.999
		h-0.042l-1.692,2.593h-4.393l-1.696-2.593h-4.535v7.922l5.262,8.019c0.002,0.003,0.004,0.007,0.002,0.01l-0.667,4.416
		c-0.001,0.009,0.004,0,0.017,0h4.944c0.008,0,0.013,0.008,0.016,0l0.853-5.64c0.001-0.003,0-0.009-0.001-0.011l-4.642-7.135h17.125
		L32.633,31.057z"/>
</g>
</svg>
